<?xml version="1.0" encoding="UTF-8" standalone="no"?>
<!-- Created with Inkscape (http://www.inkscape.org/) -->

<svg
   xmlns:dc="http://purl.org/dc/elements/1.1/"
   xmlns:cc="http://creativecommons.org/ns#"
   xmlns:rdf="http://www.w3.org/1999/02/22-rdf-syntax-ns#"
   xmlns:svg="http://www.w3.org/2000/svg"
   xmlns="http://www.w3.org/2000/svg"
   version="1.1"
   width="100%"
   height="100%"
   viewBox="0 0 400 400"
   id="svg2">
  <defs
     id="defs4" />
  <metadata
     id="metadata7">
    <rdf:RDF>
      <cc:Work
         rdf:about="">
        <dc:format>image/svg+xml</dc:format>
        <dc:type
           rdf:resource="http://purl.org/dc/dcmitype/StillImage" />
        <dc:title></dc:title>
      </cc:Work>
    </rdf:RDF>
  </metadata>
  <g
     transform="translate(0,-652.36218)"
     id="layer1">
    <path
       d="m 237.14285,243.79076 c -19.28505,20.24931 -14.93792,-20.09324 -38.50856,-5.04755 -23.57065,15.04569 14.85259,28.08692 -11.63381,37.05458 -26.48639,8.96766 -3.88908,-24.73367 -31.75193,-22.36521 -27.86285,2.36847 0.0987,31.77208 -27.52134,27.40371 -27.62002,-4.36837 8.0507,-23.70793 -17.72131,-34.55927 -25.772009,-10.85133 -14.677848,28.17863 -37.104077,11.47497 -22.426227,-16.70366 18.14617,-17.25098 0.369056,-38.83621 -17.777115,-21.58523 -26.091854,18.1298 -38.186714,-7.08255 -12.094859,-25.21234 24.084564,-6.84203 18.374869,-34.21624 -5.709695,-27.37422 -31.528528,3.92765 -30.521232,-24.01754 1.007295,-27.94518 24.505475,5.13434 32.171221,-21.75775 C 62.77477,104.94961 25.366627,120.66742 39.245319,96.391303 53.12401,72.115185 58.557796,112.32579 77.842853,92.076481 97.127912,71.827169 56.700213,68.360172 80.270861,53.314484 c 23.570649,-15.045686 9.695223,23.084244 36.181619,14.116583 26.48639,-8.967661 -7.69936,-30.825223 20.16349,-33.193692 27.86285,-2.368469 -2.14309,24.945678 25.47693,29.314049 27.62002,4.368373 7.50775,-30.87245 33.27976,-20.021113 25.77201,10.851337 -13.49044,21.092358 8.93578,37.796021 22.42623,16.703664 20.99493,-23.847172 38.77204,-2.261938 17.77712,21.585236 -21.7473,12.407033 -9.65244,37.619376 12.09486,25.21235 29.67242,-11.35879 35.38211,16.01542 5.7097,27.37421 -25.02211,0.87941 -26.02941,28.82459 -1.0073,27.94519 31.55232,3.73175 23.88657,30.62384 -7.66575,26.89209 -22.56467,-10.84968 -36.44336,13.42644 -13.87869,24.27612 26.20396,17.96739 6.9189,38.2167 z"
       transform="matrix(1.5999197,0,0,1.5999197,-34.73249,600.38731)"
       id="path3832"
       style="fill:#000000;fill-opacity:1;fill-rule:nonzero;stroke:none" />
    <path
       d="m 269.71073,238.17923 a 24.243662,24.243662 0 1 1 -48.48732,0 24.243662,24.243662 0 1 1 48.48732,0 z"
       transform="matrix(2.0688641,0,0,2.0688641,-329.41748,342.52591)"
       id="path3776"
       style="fill:#ffffff;fill-opacity:1;fill-rule:nonzero;stroke:none" />
    <path
       d="m 345.00001,263.79074 a 61.42857,61.42857 0 1 1 -122.85714,0 61.42857,61.42857 0 1 1 122.85714,0 z"
       transform="matrix(1.4396807,0,0,1.4396807,-212.76615,471.52324)"
       id="path3778"
       style="fill:none;stroke:#dbdbdb;stroke-width:5.15810966;stroke-miterlimit:4;stroke-opacity:1;stroke-dasharray:none" />
    <path
       d="m 171.67867,930.56061 c 18.45412,-70.91623 105.14851,-71.82091 105.14851,-71.82091 0,0 -83.59238,20.71241 -105.14851,71.82091 z"
       id="path3782"
       style="fill:#ffffff;fill-opacity:1;stroke:none" />
    <path
       d="m 269.71073,238.17923 a 24.243662,24.243662 0 1 1 -48.48732,0 24.243662,24.243662 0 1 1 48.48732,0 z"
       transform="matrix(0.94733728,0,0,0.94733728,44.915673,706.83153)"
       id="path3776-5"
       style="fill:#ffffff;fill-opacity:1;fill-rule:nonzero;stroke:none" />
    <path
       d="m 269.71073,238.17923 a 24.243662,24.243662 0 1 1 -48.48732,0 24.243662,24.243662 0 1 1 48.48732,0 z"
       transform="matrix(0.94733728,0,0,0.94733728,-123.82175,550.88936)"
       id="path3776-5-2"
       style="fill:#ffffff;fill-opacity:1;fill-rule:nonzero;stroke:none" />
  </g>
</svg>
